<svg xmlns="http://www.w3.org/2000/svg" width="23" height="12">
  <path fill-rule="evenodd" d="M22 .81c.15-.47 0-.81-.73-.81h-2.41c-.61 0-.9.3-1.05.63 0 0-1.22 2.74-2.95 4.51-.57.52-.82.68-1.13.68-.15 0-.38-.16-.38-.63V.81c0-.56-.17-.81-.68-.81H8.9c-.38 0-.61.26-.61.5 0 .54.86.66.95 2.16v3.26c0 .71-.14.84-.44.84-.82 0-2.8-2.75-3.98-5.9C4.58.25 4.35 0 3.73 0h-2.4C.62 0 .5.3.5.63c0 .58.82 3.48 3.8 7.33C6.29 10.58 9.09 12 11.64 12c1.53 0 1.72-.32 1.72-.86V9.16c0-.63.14-.76.63-.76.36 0 .97.16 2.4 1.43 1.63 1.5 1.9 2.17 2.81 2.17h2.41c.69 0 1.03-.32.83-.94-.21-.62-1-1.52-2.03-2.59-.56-.6-1.4-1.26-1.65-1.6-.36-.41-.26-.6 0-.98 0 0 2.93-3.79 3.23-5.08Z" clip-rule="evenodd"/>
</svg>
