<svg xmlns="http://www.w3.org/2000/svg" width="17" height="16">
  <path fill-rule="evenodd" d="M5.6.05C6.46 0 6.73 0 8.9 0s2.45 0 3.3.05c.85.04 1.43.17 1.94.37.53.2 1.02.52 1.42.92.4.4.72.89.92 1.42.2.5.33 1.09.37 1.94.04.86.05 1.13.05 3.3s0 2.45-.05 3.3a5.87 5.87 0 0 1-.37 1.94c-.2.53-.52 1.02-.92 1.42-.4.4-.89.72-1.42.92-.5.2-1.09.33-1.94.37-.85.04-1.13.05-3.3.05s-2.44 0-3.3-.05a5.86 5.86 0 0 1-1.94-.37 3.92 3.92 0 0 1-1.42-.92c-.4-.4-.72-.89-.92-1.42a5.9 5.9 0 0 1-.37-1.94C.9 10.44.9 10.17.9 8s.01-2.45.05-3.3c.04-.85.17-1.43.37-1.94.2-.53.52-1.02.92-1.42.4-.4.89-.72 1.42-.92.5-.2 1.1-.33 1.94-.37Zm6.53 1.44a55.5 55.5 0 0 0-3.23-.05c-2.14 0-2.39 0-3.23.05-.78.03-1.2.16-1.49.27-.37.15-.64.32-.92.6-.26.26-.47.57-.6.92-.1.28-.24.7-.27 1.49-.04.84-.05 1.1-.05 3.23 0 2.14.01 2.39.05 3.23.03.78.16 1.2.27 1.49.13.35.34.66.6.92.26.26.57.47.92.6.28.1.7.24 1.49.27.84.04 1.1.05 3.23.05 2.14 0 2.39-.01 3.23-.05.78-.03 1.2-.16 1.49-.27.37-.15.64-.32.92-.6.26-.26.47-.57.6-.92.1-.28.24-.7.27-1.49.04-.84.05-1.1.05-3.23 0-2.14 0-2.39-.05-3.23a4.42 4.42 0 0 0-.27-1.49 2.48 2.48 0 0 0-.6-.92 2.48 2.48 0 0 0-.92-.6c-.28-.1-.7-.24-1.49-.27Zm-4.25 8.98a2.67 2.67 0 1 0 2.05-4.93 2.67 2.67 0 0 0-2.05 4.93ZM5.99 5.09a4.11 4.11 0 1 1 5.82 5.82 4.11 4.11 0 0 1-5.82-5.82Zm7.93-.59a.97.97 0 1 0-1.33-1.41.97.97 0 0 0 1.33 1.41Z" clip-rule="evenodd"/>
</svg>
