<svg xmlns="http://www.w3.org/2000/svg" width="78" height="19">
  <path fill-rule="evenodd" d="M41.58 4.6c.18.2 1.85 4.75 2.02 5.31.18.6.42 1.18.73 1.72.58.14.64-.46.81-.93.95-2.56 2.39-6.28 3.1-8.79.5-1.21.55-1.54-.35-1.54s-.81.6-1.17 1.4c-.32 1.5-1.54 4.65-1.98 6.1 0 .2 0 .2-.23.2-.75-2.16-1.62-4.8-2.47-6.95-.23-.41-.64-.5-.9.43-.47 1.49-1.1 3.25-1.59 4.7 0 0-.59 1.82-.63 1.9a5.73 5.73 0 0 1-.68-1.67c-.67-1.72-1.26-3.58-1.84-5.3-.14-.33-.14-.52-.45-.7a1.83 1.83 0 0 0-1-.1c-.89.15-.31.9-.13 1.44 1.1 3.03 2.3 6.66 3.51 9.54.03.07.08.14.13.18a.42.42 0 0 0 .6-.08c.18-.35 2.39-6.86 2.52-6.86ZM.35.56a.92.92 0 0 0 .04.56c.19.8-.36 9.77-.21 10.13.44.2.93.25 1.4.13.22-.23.13-.46.13-.83 0-1.58.13-3.11.13-4.75.06-.6.1-1.02.1-1.39 0-.37 0-.33.09-.42.09-.09 1.51 2.48 1.65 2.76.28.55.81 1.4 1.17 2.05.54 1.02.82.32.95.09.31-.42 2.75-4.84 2.93-4.93.16.18.16 4.6.16 4.93 0 2.42-.27 2.65 1.21 2.55.46 0 .5-.37.46-.79V8.2c-.12-2-.2-4.29-.2-6.28 0-.23.08-1.12.08-1.26a.86.86 0 0 0-1.09-.2c-.32.2-.4.62-.63.9C7.8 3.03 6.57 4.93 5.7 6.51c-.32.57-.32.37-.59 0-.59-.89-1.35-2.42-1.88-3.3l-1.1-1.86a3.86 3.86 0 0 0-.57-.89C1.27.24.67.42.35.56ZM57.84 5.77a2.98 2.98 0 0 1 2.8-.56c1.43.65 1.62 2.84.99 3.91-.27.42-.66.74-1.11.92-.46.18-.95.2-1.42.08-.46-.09-.89-.28-1.26-.56V5.77Zm0-1.59a33.24 33.24 0 0 1 0-3.67c0-.51-.18-.6-.64-.42-1.09.47-1.09.28-.93 1.3.08.52 0 6.52 0 7.36 0 1.67-.23 2.05 2.11 2.75a4.9 4.9 0 0 0 3.89-.8c2.3-1.95 1.67-7.44-2.53-7.02-.36.02-.73.06-1.09.13-.14.05-.67.37-.74.37h-.07ZM26.07 11.35c.17-.59.22-1.2.14-1.81-.04-.64-.04-1.28 0-1.91.14 0 .28.23.55.51.27.29 2.52 2.7 2.88 2.97a1.08 1.08 0 0 0 .94.29c.32 0 .82 0 1-.23 0-.33-.64-.84-.91-1.12-.27-.29-.62-.65-.94-1.03-.69-.63-1.34-1.3-1.94-2.03 0-.1 2.48-2.25 2.93-2.66.18-.19.36-.24.32-.52a2.83 2.83 0 0 0-1.72 0c-.22.1-1.71 1.5-2.11 1.87-.13.14-.9.98-1 .93-.13-.42 0-6.24-.08-6.57-.09-.32-1.63.2-1.58.76.08.4.13.8.13 1.2v8.05c0 .28-.09 1.12.1 1.26.42.1.86.12 1.3.04ZM14.33 7.54c.5-.14 2.18.28 2.26.74.04.5.04 1 0 1.5-.32.41-2.49 1.24-3.2-.24a1.62 1.62 0 0 1 0-1.35 1.42 1.42 0 0 1 .94-.65Zm2.3-.57c-.42-.29-.9-.49-1.4-.6a5 5 0 0 0-1.84.14c-.51.15-.96.47-1.28.9a2.6 2.6 0 0 0 1.19 3.99 4 4 0 0 0 2.66 0c.18-.1.54-.33.67-.38.13-.04.19.33.36.42.18.09 1 0 1.22-.22.23-.23.27-.2.13-.52a2.4 2.4 0 0 1-.22-1.4V5.95c.06-.47-.05-.95-.31-1.35-.86-1.77-6.05-1.07-5.63.43.41 1.5 1.09-.52 3.37-.24 1.23.14 1.1 1.35 1.1 2.18h-.02ZM69.96 6.75h-3.73c.05-.46.25-.9.58-1.22.35-.31.8-.5 1.26-.55a1.77 1.77 0 0 1 1.35.46 1.55 1.55 0 0 1 .54 1.31Zm-3.83 1.2c.27-.13 4.36 0 5.1 0 .74 0 .4-2.5-.95-3.53a3.58 3.58 0 0 0-5.34 1.13 3.87 3.87 0 0 0-.49 2.03 3.93 3.93 0 0 0 1.82 3.44c1.21.85 4.46.8 4.86-.5.5-1.68-.68-.74-1.09-.56-.35.14-.71.24-1.09.28-2.4.28-3-1.92-2.82-2.29ZM49.77 6.75c.04-.48.25-.93.6-1.26.34-.32.79-.5 1.26-.5.93-.1 2.02.74 1.84 1.76h-3.7Zm-.18 1.12h5.05c.6 0 .5-.37.45-.83a3.7 3.7 0 0 0-1.86-3 3.4 3.4 0 0 0-3.46.11 3.9 3.9 0 0 0-1.8 3.49c-.04.68.11 1.37.44 1.97.32.6.82 1.09 1.4 1.4 1.54.98 4.56.57 4.83-.55 0-.32.22-1.12-.27-.93a5.9 5.9 0 0 1-1.9.7 2.64 2.64 0 0 1-2.03-.56c-.4-.32-1.02-1.3-.85-1.8ZM74.06 11.4c.27-.29.23-.42.23-.84V9.44c0-1.49-.28-3.95 1.4-4.32.35-.1.44.22.9.13.26-.25.47-.56.58-.92 0-.7-1.09-.84-2.08-.38-.31.14-.57.65-.8.7 0-.42.08-.6-.19-.97a2.4 2.4 0 0 0-.99.32c-.45.23-.53.23-.45.8.09.55 0 4.41 0 5.34.05 1.4.05 1.36 1.4 1.25ZM20.94 11.35v-.09c.13-1.14.16-2.3.1-3.44 0-.89.22-2.33 1.17-2.61.76-.28.8.46 1.3 0 1.17-1.26-.4-1.77-1.35-1.35-.94.41-.81.74-1.09.83a2.33 2.33 0 0 1 0-.55c0-.24-.1-.24-.18-.37-.35 0-.7.1-1 .28-.44.18-.58.22-.44.79.1.86.13 1.73.09 2.6V10c.1 1.4-.09 1.5 1.4 1.35ZM41.26 12.85c-1.8.23-3.57.66-5.27 1.29-.54.24-1.1.37-1.63.6l-3.19 1.22c-.36.14-2.93.93-3.38 1.03-2.17.55-5.44 1.2-7.52.22-1-.5-1.1 1.07 1.16 1.63 1.32.24 2.67.18 3.97-.18 1.09-.23 2.4-.65 3.43-.98 1.03-.32 2.25-.7 3.38-1.02.27-.1.49-.2.8-.28l1.67-.52c.31-.09.54-.22.82-.32l1.72-.42.81-.28c2.29-.5 4.61-.75 6.94-.74.58 0 1.44.14 2.03.23 1.09.14.85-.46.13-.84-1.87-.74-3.9-.96-5.87-.64Z" clip-rule="evenodd"/>
</svg>
