<svg width="18" height="18" viewBox="0 0 18 18" xmlns="http://www.w3.org/2000/svg">
<path d="M14 7.125H12.75C12.7495 6.62787 12.5518 6.15125 12.2003 5.79972C11.8488 5.4482 11.3721 5.2505 10.875 5.25V4C11.7035 4.00099 12.4978 4.33055 13.0836 4.91639C13.6694 5.50222 13.999 6.2965 14 7.125Z"/>
<path d="M16.5 7.125H15.25C15.2487 5.96508 14.7873 4.85305 13.9671 4.03287C13.1469 3.21268 12.0349 2.75132 10.875 2.75V1.5C12.3663 1.50165 13.7961 2.09482 14.8506 3.14935C15.9052 4.20389 16.4983 5.63367 16.5 7.125Z"/>
<path d="M15.2497 17.125H15.1434C2.86216 16.4187 1.11841 6.05625 0.874656 2.89375C0.83656 2.39797 0.996958 1.90736 1.32057 1.52983C1.64418 1.1523 2.1045 0.918778 2.60028 0.880626C2.64986 0.876876 2.69966 0.875001 2.74966 0.875001H6.04341C6.29375 0.874758 6.53841 0.949694 6.74568 1.0901C6.95294 1.23051 7.11328 1.42992 7.20591 1.6625L8.15591 4C8.24738 4.22722 8.27007 4.4763 8.22118 4.71631C8.17229 4.95631 8.05397 5.17667 7.88091 5.35L6.54966 6.69375C6.75676 7.87583 7.3224 8.96562 8.16987 9.81532C9.01733 10.665 10.1056 11.2335 11.2872 11.4438L12.6434 10.1C12.8193 9.92885 13.0418 9.81328 13.283 9.76771C13.5241 9.72214 13.7734 9.74859 13.9997 9.84375L16.3559 10.7875C16.585 10.8831 16.7804 11.0446 16.9173 11.2517C17.0542 11.4587 17.1264 11.7018 17.1247 11.95V15.25C17.1247 15.7473 16.9271 16.2242 16.5755 16.5758C16.2239 16.9275 15.7469 17.125 15.2497 17.125ZM2.74966 2.125C2.66758 2.12475 2.58626 2.14068 2.51034 2.17186C2.43441 2.20304 2.36538 2.24887 2.30716 2.30673C2.24895 2.36459 2.20271 2.43336 2.17107 2.50909C2.13944 2.58483 2.12303 2.66605 2.12278 2.74813C2.12278 2.76563 2.12341 2.78292 2.12466 2.8C2.41216 6.5 4.25591 15.25 15.2122 15.875C15.3776 15.8849 15.5402 15.8287 15.6642 15.7188C15.7882 15.6088 15.8634 15.4542 15.8734 15.2887L15.8747 15.25V11.95L13.5184 11.0062L11.7247 12.7875L11.4247 12.75C5.98716 12.0688 5.24966 6.63125 5.24966 6.575L5.21216 6.275L6.98716 4.48125L6.04966 2.125H2.74966Z"/>
</svg>
