<svg xmlns="http://www.w3.org/2000/svg" width="125" height="124" fill="none">
  <path fill="#fff" d="M125.01.67V0h-1.8a93 93 0 0 0-56.84 20.88c-1.53.2-2.98.8-4.25 1.7a10.03 10.03 0 0 0-3.04 3.56 10.57 10.57 0 0 0-.18 9.3 95.38 95.38 0 0 0-12.55 17.59 10.86 10.86 0 0 0-8.68 1.71 11.69 11.69 0 0 0-4.14 5.3 12.33 12.33 0 0 0-.63 6.8 11.98 11.98 0 0 0 4.76 7.5c-.58 2.11-1.1 4.26-1.55 6.42l.64.15c.42-2.1.92-4.16 1.48-6.2.58.36 1.2.66 1.83.9a96.2 96.2 0 0 0-2.17 10.13c-.41-.04-.83-.06-1.26-.06a13.61 13.61 0 0 0-9.7 4.36 15 15 0 0 0-4 10.25c0 3.83 1.44 7.51 4 10.24a13.6 13.6 0 0 0 9.7 4.36c.36 0 .72 0 1.08-.04l.28 1.83c.4 2.48.9 4.91 1.48 7.31h.68a92.65 92.65 0 0 1-1.79-9.2c3.12-.41 6.03-1.92 8.23-4.28a15.19 15.19 0 0 0 1.78-18.1 14.05 14.05 0 0 0-7.23-5.95 92.15 92.15 0 0 1 2.17-10.15h.6c2.02 0 3.98-.58 5.71-1.65a11.56 11.56 0 0 0 4.12-4.46 12.27 12.27 0 0 0-.34-11.97 87 87 0 0 1 12.34-17.28c2.28.46 4.64.06 6.65-1.14a10.08 10.08 0 0 0 4.35-5.4A76.93 76.93 0 0 1 125 17.33v-.7a77.54 77.54 0 0 0-47.96 16.64c.17-.76.26-1.54.26-2.33v-.44A79.3 79.3 0 0 1 125 14.55v-.68a79.98 79.98 0 0 0-47.77 15.88c-.09-.76-.26-1.5-.5-2.2A81.83 81.83 0 0 1 125 11.77v-.69a82.47 82.47 0 0 0-48.53 15.8c-.26-.64-.6-1.25-.98-1.83A84.4 84.4 0 0 1 125 9v-.68a85.07 85.07 0 0 0-49.92 16.2 9.33 9.33 0 0 0-1.44-1.51 86.92 86.92 0 0 1 51.36-16.79v-.68A87.68 87.68 0 0 0 73.1 22.59a9.41 9.41 0 0 0-1.97-1.1A89.56 89.56 0 0 1 125 3.44v-.68a90.22 90.22 0 0 0-54.64 18.46 9.28 9.28 0 0 0-2.77-.42h-.05A92.26 92.26 0 0 1 125 .67ZM63.25 26.38a6.08 6.08 0 0 1 2.8-1.69 101.91 101.91 0 0 0-4.13 3.72c.31-.76.76-1.44 1.32-2.03h.01Zm-2.37 11.9c.48.49 1.01.92 1.57 1.3a90.01 90.01 0 0 0-11.33 15.91 11.2 11.2 0 0 0-1.64-1.2 91.73 91.73 0 0 1 11.4-16Zm-1.65-2.21c.34.61.74 1.19 1.2 1.72A93.06 93.06 0 0 0 48.9 53.97c-.6-.3-1.24-.56-1.88-.76a94.79 94.79 0 0 1 12.2-17.14h.01ZM38.47 70.26a8.46 8.46 0 0 1-1.67-8.8 8.01 8.01 0 0 1 2.84-3.64 7.45 7.45 0 0 1 4.9-1.33 97.64 97.64 0 0 0-5.77 14.08l-.3-.31Zm.85.77a97.34 97.34 0 0 1 5.9-14.45c.68.12 1.33.33 1.94.63-.24.49-.49.97-.72 1.46a94.49 94.49 0 0 0-5.37 13.4 7.67 7.67 0 0 1-1.76-1.04h.01Zm-2.69 40.16a9.95 9.95 0 0 1-3.97-.83 10.35 10.35 0 0 1-3.37-2.36 10.95 10.95 0 0 1-2.25-3.54 11.37 11.37 0 0 1 2.25-11.87c.96-1.01 2.1-1.82 3.37-2.36a9.96 9.96 0 0 1 4.73-.8 98.39 98.39 0 0 0-.15 21.74c-.22.02-.42.02-.62.02h.01Zm7.32-18.6a11.07 11.07 0 0 1 2.77 5.25c.44 2 .34 4.07-.3 6a10.92 10.92 0 0 1-3.28 4.92 10.15 10.15 0 0 1-5.27 2.35c-.75-7.18-.7-14.44.15-21.61.67.1 1.33.26 1.97.49a95.58 95.58 0 0 0-.64 11H40c0-3.6.2-7.18.61-10.75a10.4 10.4 0 0 1 3.35 2.35Zm-3.47-6.33c-.63-.2-1.28-.34-1.93-.43.53-3.37 1.24-6.7 2.13-9.99.64.2 1.3.34 1.96.42a94.09 94.09 0 0 0-2.15 10h-.01Zm3.2-13.64a7.3 7.3 0 0 1-1.99-.33 94.28 94.28 0 0 1 5.3-13.3l.73-1.46c.59.35 1.13.78 1.6 1.28a91.71 91.71 0 0 0-5.63 13.8Zm5.68-2.36a7.53 7.53 0 0 1-4.97 2.34c1.34-4.22 3-8.33 4.93-12.3l.48-.96c.5.62.91 1.33 1.21 2.09a90.75 90.75 0 0 0-2.6 5.87l.61.26c.72-1.76 1.48-3.5 2.3-5.23.37 1.39.38 2.85.04 4.24a8.2 8.2 0 0 1-2 3.69Zm10.23-22.92A88.47 88.47 0 0 0 53 57.61c-.34-.5-.73-.97-1.14-1.4l-.25-.25a89.44 89.44 0 0 1 11.42-16.03c.63.36 1.3.64 1.99.84a87.34 87.34 0 0 0-5.44 6.57h.01Zm12.38-11.8a6.11 6.11 0 0 1-2.5 1.6 88.35 88.35 0 0 1 3.68-3.33c-.3.64-.7 1.23-1.18 1.73Zm1.72-5.67a7.13 7.13 0 0 1-.1 2.74 76.28 76.28 0 0 0-5.36 4.82 5.7 5.7 0 0 1-2.58-.3 87 87 0 0 1 8.04-7.26Zm-.16-.76c-3 2.38-5.86 4.96-8.55 7.73a6.24 6.24 0 0 1-1.66-1.21 89.36 89.36 0 0 1 9.32-8.4c.4.57.7 1.2.89 1.88Zm-2.89-3.8a6.2 6.2 0 0 1 1.6 1.35 89.65 89.65 0 0 0-9.37 8.46 6.54 6.54 0 0 1-1.04-1.85 84.81 84.81 0 0 1 8.8-7.94l.01-.02Zm-3.03-.84c.82 0 1.62.17 2.37.5a94.5 94.5 0 0 0-8.38 7.57 6.74 6.74 0 0 1-.06-2.82 90.06 90.06 0 0 1 5.78-5.23l.3-.02Z"/>
  <path fill="#fff" fill-rule="evenodd" d="M23.29 40.91h3.45V29.68c0-1.07-.08-2.88.75-3.95.82-1.07 2.07-1.12 3.24-1.12h4.68v-3.44h-3.96c-2.4 0-4.69-.04-6.49 1.98-1.72 1.98-1.68 4.77-1.68 6.54v11.22ZM39.44 49.91V32.62c0-6.97 3.65-8.46 6.44-8.46 3.54 0 6.45 2.81 6.45 7.06 0 3.92-2.68 6.64-6.64 6.64-1.58 0-3.15-.53-4.84-2.22v3.78a8 8 0 0 0 5.26 1.89 9.64 9.64 0 0 0 9.75-10.03c0-6.47-4.75-10.58-10.02-10.58-4.32 0-9.86 2.4-9.86 11.63v17.58h3.46ZM14.27 74.26h3.46V62.5c0-4.83 3.81-4.99 4.83-4.99 3.03 0 3.58 1.77 3.58 2.72 0 2.35-2.6 2.27-4.05 2.27h-2.95v3.3h3.58c2.12 0 4.64.03 4.64 2.64 0 2.27-2.24 2.35-3.85 2.35h-4.37v3.46h4.49c2.59 0 5.14-.16 6.64-2.89a5.27 5.27 0 0 0-1.16-6.44 4.75 4.75 0 0 0-2.03-1.02c.76-.34 1.4-.9 1.86-1.62a4.7 4.7 0 0 0 .74-2.42c0-3.06-2.6-5.82-7.31-5.82-4.25 0-8.1 2.68-8.1 7.67v12.55ZM69.67 74.26l-5.5-15.28-5.5 15.27h-3.78l6.49-17.7c.47-1.23.78-2.51 2.79-2.51 2 0 2.36 1.32 2.79 2.51l6.48 17.7h-3.77ZM74.67 74.26h3.46V63c0-1.08-.08-2.9.75-3.97.82-1.07 2.08-1.1 3.26-1.1h4.68v-3.48h-3.96c-2.4 0-4.68-.05-6.48 1.98-1.73 1.98-1.69 4.78-1.69 6.56l-.02 11.27ZM14.97 35.65a6.8 6.8 0 0 1-4.94 2.22c-2.78 0-6.51-1.81-6.51-6.8 0-4.27 2.9-6.87 6.43-6.87 2.6 0 6.44 1.23 6.44 7.86v8.85h3.45v-8.72c0-8.28-4.87-11.44-9.77-11.44C4.76 20.75.22 24.7 0 30.85v.96c.22 5.81 4.37 9.52 9.52 9.52a8.2 8.2 0 0 0 5.45-1.9v-3.78ZM101.9 68.94a6.8 6.8 0 0 1-4.94 2.23c-2.78 0-6.5-1.81-6.5-6.81 0-4.28 2.9-6.87 6.43-6.87 2.58 0 6.43 1.23 6.43 7.86v8.85h3.45v-8.71c0-8.28-4.86-11.45-9.77-11.45-5.45 0-10.09 4.16-10.09 10.59 0 6.09 4.24 10 9.54 10a8.2 8.2 0 0 0 5.45-1.9v-3.79ZM21 111.28H7.12l7.65-6.34c3.22-2.67 6.28-5.06 6.28-10.16 0-5.1-3.76-9.1-8.83-9.1-4.79 0-9.53 3.4-9.53 9.43 0 3.78 2.04 7 5.72 8.4l3.22-2.68c-2.31-.29-5.26-2.02-5.26-5.72 0-3.17 2.16-5.8 5.57-5.8 3.77 0 5.4 2.8 5.4 5.51 0 3.03-1.96 4.78-3.72 6.21l-9.17 7.54c-1.13.9-2.2 1.4-2.2 3.29 0 1.51.95 3.05 3.7 3.05H21v-3.63ZM70.59 111.28H56.7l7.65-6.34c3.22-2.67 6.27-5.06 6.27-10.16 0-5.1-3.76-9.1-8.82-9.1-4.78 0-9.53 3.4-9.53 9.43 0 3.78 2.04 7 5.73 8.4l3.21-2.68c-2.3-.29-5.25-2.02-5.25-5.72 0-3.17 2.16-5.8 5.57-5.8 3.76 0 5.4 2.8 5.4 5.51 0 3.03-1.96 4.78-3.73 6.21l-9.16 7.54c-1.14.9-2.2 1.4-2.2 3.29 0 1.51.95 3.05 3.7 3.05h15.05v-3.63ZM92.03 111.28H78.14l7.65-6.34c3.22-2.67 6.28-5.06 6.28-10.16 0-5.1-3.77-9.1-8.83-9.1-4.79 0-9.53 3.4-9.53 9.43 0 3.78 2.04 7 5.72 8.4l3.22-2.68c-2.31-.29-5.25-2.02-5.25-5.72 0-3.17 2.16-5.8 5.57-5.8 3.76 0 5.4 2.8 5.4 5.51 0 3.03-1.96 4.78-3.73 6.21l-9.17 7.54c-1.13.9-2.2 1.4-2.2 3.29 0 1.51.95 3.05 3.7 3.05h15.06v-3.63Z" clip-rule="evenodd"/>
</svg>
